<?xml version="1.0" encoding="iso-8859-1"?>
<!-- Generator: Adobe Illustrator 19.0.0, SVG Export Plug-In . SVG Version: 6.00 Build 0)  -->
<svg version="1.1" id="Capa_1" xmlns="http://www.w3.org/2000/svg" xmlns:xlink="http://www.w3.org/1999/xlink" x="0px" y="0px"
	 viewBox="0 0 511.853 511.853" style="enable-background:new 0 0 511.853 511.853;" xml:space="preserve">
<path style="fill:#FFD2A6;" d="M168.748,21.371l87.197,210.436L343.06,21.371c-26.854-11.132-56.283-17.307-87.154-17.307
	C225.032,4.065,195.602,10.24,168.748,21.371z"/>
<path style="fill:#FFCE54;" d="M174.868,36.141l81.077,195.666l81.011-195.666c-24.98-10.352-52.334-16.089-81.05-16.089
	C227.194,20.052,199.833,25.789,174.868,36.141z"/>
<path style="fill:#FFD2A6;" d="M343.06,69.458l-87.115,210.437L168.748,69.458C86.18,103.682,28.085,185.031,28.085,279.973
	c0,125.823,101.998,227.821,227.821,227.821c125.828,0,227.826-101.998,227.826-227.821
	C483.732,185.031,425.636,103.682,343.06,69.458z"/>
<g style="opacity:0.7;">
	<path style="fill:#FFFFFF;" d="M36.079,279.973c0-92.318,55.003-171.646,133.941-207.438l-1.272-3.076
		C86.18,103.682,28.085,185.031,28.085,279.973c0,125.823,101.998,227.821,227.821,227.821c1.343,0,2.662-0.078,3.998-0.102
		C135.93,505.553,36.079,404.453,36.079,279.973z"/>
</g>
<g style="opacity:0.3;">
	<path d="M476.861,279.973c0-92.318-55.002-171.646-133.941-207.438l1.281-3.076c82.561,34.224,140.654,115.573,140.654,210.515
		c0,125.823-101.998,227.821-227.816,227.821c-1.343,0-2.663-0.078-3.998-0.102C377.019,505.553,476.861,404.453,476.861,279.973z"
		/>
</g>
<path style="fill:#FFCE54;" d="M336.956,84.228l-81.011,195.667L174.868,84.228C98.092,116.055,44.072,191.698,44.072,279.973
	c0,116.986,94.847,211.833,211.833,211.833c116.99,0,211.837-94.847,211.837-211.833
	C467.743,191.698,413.724,116.055,336.956,84.228z"/>
<g>
	<path style="fill:#ED5564;" d="M415.816,259.91c11.039,0,19.984,8.954,19.984,19.984s-8.945,19.984-19.984,19.984
		c-11.102,0-19.984-8.954-19.984-19.984S404.792,259.91,415.816,259.91z"/>
	<path style="fill:#ED5564;" d="M383.122,152.713c7.76,7.83,7.76,20.461,0,28.298c-7.822,7.83-20.453,7.83-28.291,0
		c-7.758-7.837-7.758-20.468,0-28.298C362.669,144.961,375.3,144.961,383.122,152.713z"/>
	<path style="fill:#ED5564;" d="M383.122,378.856c7.76,7.752,7.76,20.461,0,28.22c-7.822,7.83-20.453,7.83-28.291,0
		c-7.836-7.759-7.836-20.468,0-28.22C362.669,371.019,375.3,371.019,383.122,378.856z"/>
	<path style="fill:#ED5564;" d="M255.945,52.073c11.035,0,19.98,8.954,19.98,19.984s-8.945,19.984-19.98,19.984
		c-11.03,0-19.984-8.954-19.984-19.984S244.915,52.073,255.945,52.073z"/>
	<path style="fill:#ED5564;" d="M255.945,419.784c11.035,0,19.98,8.954,19.98,19.984c0,11.031-8.945,19.984-19.98,19.984
		c-11.03,0-19.984-8.953-19.984-19.984C235.961,428.739,244.915,419.784,255.945,419.784z"/>
	<path style="fill:#ED5564;" d="M156.984,152.713c7.837,7.83,7.837,20.461,0,28.298c-7.751,7.752-20.46,7.752-28.22,0
		c-7.83-7.837-7.83-20.468,0-28.298C136.523,144.961,149.232,144.961,156.984,152.713z"/>
	<path style="fill:#ED5564;" d="M156.984,378.856c7.837,7.752,7.837,20.461,0,28.22c-7.751,7.83-20.46,7.83-28.22,0
		c-7.83-7.759-7.83-20.468,0-28.22C136.523,371.019,149.232,371.019,156.984,378.856z"/>
	<path style="fill:#ED5564;" d="M96.071,259.91c11.031,0,19.984,8.954,19.984,19.984s-8.954,19.984-19.984,19.984
		s-19.984-8.954-19.984-19.984S85.04,259.91,96.071,259.91z"/>
</g>
<g style="opacity:0.3;">
	<path style="fill:#FFFFFF;" d="M84.08,279.895c0-9.664,6.87-17.729,15.987-19.578c-1.295-0.266-2.63-0.406-3.997-0.406
		c-11.03,0-19.984,8.954-19.984,19.984s8.954,19.984,19.984,19.984c1.366,0,2.701-0.141,3.997-0.406
		C90.95,297.623,84.08,289.559,84.08,279.895z"/>
</g>
<g style="opacity:0.3;">
	<path d="M108.061,279.895c0,9.664-6.87,17.729-15.987,19.578c1.296,0.266,2.631,0.406,3.997,0.406
		c11.031,0,19.984-8.954,19.984-19.984s-8.954-19.984-19.984-19.984c-1.366,0-2.701,0.141-3.997,0.406
		C101.192,262.166,108.061,270.231,108.061,279.895z"/>
</g>
<g style="opacity:0.3;">
	<path style="fill:#FFFFFF;" d="M403.825,279.973c0-9.664,6.869-17.729,15.986-19.579c-1.295-0.265-2.623-0.405-3.996-0.405
		c-11.023,0-19.984,8.954-19.984,19.984s8.961,19.984,19.984,19.984c1.373,0,2.701-0.141,3.996-0.406
		C410.695,297.7,403.825,289.637,403.825,279.973z"/>
</g>
<g style="opacity:0.3;">
	<path d="M427.806,279.973c0,9.664-6.869,17.728-15.986,19.578c1.295,0.266,2.639,0.406,3.996,0.406
		c11.039,0,19.984-8.954,19.984-19.984s-8.945-19.984-19.984-19.984c-1.357,0-2.701,0.141-3.996,0.405
		C420.937,262.244,427.806,270.309,427.806,279.973z"/>
</g>
<g style="opacity:0.3;">
	<path style="fill:#FFFFFF;" d="M357.376,392.642c0-9.664,6.871-17.729,15.988-19.578c-1.295-0.266-2.639-0.406-3.996-0.406
		c-11.039,0-19.984,8.954-19.984,19.984s8.945,19.984,19.984,19.984c1.357,0,2.701-0.141,3.996-0.406
		C364.247,410.37,357.376,402.306,357.376,392.642z"/>
</g>
<g style="opacity:0.3;">
	<path d="M381.359,392.642c0,9.664-6.869,17.729-15.988,19.578c1.297,0.266,2.623,0.406,3.998,0.406
		c11.021,0,19.984-8.954,19.984-19.984s-8.963-19.984-19.984-19.984c-1.375,0-2.701,0.141-3.998,0.406
		C374.489,374.913,381.359,382.978,381.359,392.642z"/>
</g>
<g style="opacity:0.3;">
	<path style="fill:#FFFFFF;" d="M243.954,439.769c0-9.664,6.87-17.729,15.988-19.578c-1.297-0.266-2.631-0.406-3.998-0.406
		c-11.03,0-19.984,8.954-19.984,19.984c0,11.031,8.954,19.984,19.984,19.984c1.367,0,2.701-0.141,3.998-0.406
		C250.824,457.497,243.954,449.433,243.954,439.769z"/>
</g>
<g style="opacity:0.3;">
	<path d="M267.931,439.769c0,9.664-6.865,17.729-15.983,19.578c1.296,0.266,2.631,0.406,3.997,0.406
		c11.035,0,19.98-8.953,19.98-19.984c0-11.03-8.945-19.984-19.98-19.984c-1.366,0-2.701,0.141-3.997,0.406
		C261.066,422.04,267.931,430.105,267.931,439.769z"/>
</g>
<g style="opacity:0.3;">
	<path style="fill:#FFFFFF;" d="M130.887,392.962c0-9.664,6.87-17.729,15.988-19.578c-1.296-0.266-2.631-0.406-3.997-0.406
		c-11.03,0-19.984,8.954-19.984,19.984s8.954,19.984,19.984,19.984c1.366,0,2.701-0.141,3.997-0.406
		C137.757,410.691,130.887,402.626,130.887,392.962z"/>
</g>
<g style="opacity:0.3;">
	<path d="M154.868,392.962c0,9.664-6.869,17.729-15.987,19.578c1.296,0.266,2.631,0.406,3.997,0.406
		c11.03,0,19.984-8.954,19.984-19.984s-8.954-19.984-19.984-19.984c-1.366,0-2.701,0.141-3.997,0.406
		C147.999,375.234,154.868,383.298,154.868,392.962z"/>
</g>
<g style="opacity:0.3;">
	<path style="fill:#FFFFFF;" d="M356.956,166.89c0-9.664,6.869-17.729,15.986-19.579c-1.295-0.265-2.623-0.405-3.996-0.405
		c-11.023,0-19.984,8.954-19.984,19.984s8.961,19.984,19.984,19.984c1.373,0,2.701-0.141,3.996-0.406
		C363.825,184.617,356.956,176.554,356.956,166.89z"/>
</g>
<g style="opacity:0.3;">
	<path d="M380.937,166.89c0,9.664-6.869,17.728-15.988,19.578c1.297,0.266,2.639,0.406,3.998,0.406
		c11.037,0,19.984-8.954,19.984-19.984s-8.947-19.984-19.984-19.984c-1.359,0-2.701,0.141-3.998,0.405
		C374.068,149.161,380.937,157.226,380.937,166.89z"/>
</g>
<g style="opacity:0.3;">
	<path style="fill:#FFFFFF;" d="M130.887,166.89c0-9.664,6.87-17.729,15.988-19.579c-1.296-0.265-2.631-0.405-3.997-0.405
		c-11.03,0-19.984,8.954-19.984,19.984s8.954,19.984,19.984,19.984c1.366,0,2.701-0.141,3.997-0.406
		C137.757,184.617,130.887,176.554,130.887,166.89z"/>
</g>
<g style="opacity:0.3;">
	<path d="M154.868,166.89c0,9.664-6.869,17.728-15.987,19.578c1.296,0.266,2.631,0.406,3.997,0.406
		c11.03,0,19.984-8.954,19.984-19.984s-8.954-19.984-19.984-19.984c-1.366,0-2.701,0.141-3.997,0.405
		C147.999,149.161,154.868,157.226,154.868,166.89z"/>
</g>
<g style="opacity:0.3;">
	<path style="fill:#FFFFFF;" d="M243.954,72.058c0-9.664,6.87-17.729,15.988-19.578c-1.297-0.266-2.631-0.406-3.998-0.406
		c-11.03,0-19.984,8.954-19.984,19.984s8.954,19.984,19.984,19.984c1.367,0,2.701-0.141,3.998-0.406
		C250.824,89.786,243.954,81.722,243.954,72.058z"/>
</g>
<g style="opacity:0.3;">
	<path d="M267.931,72.058c0,9.664-6.865,17.729-15.983,19.578c1.296,0.266,2.631,0.406,3.997,0.406
		c11.035,0,19.98-8.954,19.98-19.984s-8.945-19.984-19.98-19.984c-1.366,0-2.701,0.141-3.997,0.406
		C261.066,54.329,267.931,62.394,267.931,72.058z"/>
</g>
<g>
	<path style="fill:#3A3847;" d="M252.167,128.03c-2.209,0-4.036-1.788-4.036-3.997s1.749-3.997,3.95-3.997h0.086
		c2.201,0,3.997,1.788,3.997,3.997S254.368,128.03,252.167,128.03z"/>
	<path style="fill:#3A3847;" d="M260.161,72.073c-2.211,0-4.037-1.788-4.037-3.997s1.75-3.997,3.951-3.997h0.086
		c2.201,0,3.992,1.788,3.992,3.997S262.363,72.073,260.161,72.073z"/>
	<path style="fill:#3A3847;" d="M244.173,447.779c-2.209,0-4.036-1.788-4.036-3.997s1.748-3.997,3.95-3.997h0.086
		c2.202,0,3.997,1.788,3.997,3.997S246.375,447.779,244.173,447.779z"/>
	<path style="fill:#3A3847;" d="M292.132,415.804c-2.201,0-4.029-1.788-4.029-3.997c0-2.21,1.75-3.997,3.951-3.997h0.078
		c2.201,0,3.996,1.787,3.996,3.997C296.128,414.016,294.333,415.804,292.132,415.804z"/>
	<path style="fill:#3A3847;" d="M252.135,335.866c-2.209,0-4.036-1.788-4.036-3.997s1.749-3.997,3.95-3.997h0.086
		c2.201,0,3.997,1.788,3.997,3.997S254.337,335.866,252.135,335.866z"/>
	<path style="fill:#3A3847;" d="M260.161,183.986c-2.211,0-4.037-1.788-4.037-3.997s1.75-3.997,3.951-3.997h0.086
		c2.201,0,3.992,1.788,3.992,3.997S262.363,183.986,260.161,183.986z"/>
	<path style="fill:#3A3847;" d="M244.173,80.068c-2.209,0-4.036-1.788-4.036-3.997s1.748-3.997,3.95-3.997h0.086
		c2.202,0,3.997,1.788,3.997,3.997S246.375,80.068,244.173,80.068z"/>
	<path style="fill:#3A3847;" d="M292.132,104.048c-2.201,0-4.029-1.787-4.029-3.996c0-2.21,1.75-3.997,3.951-3.997h0.078
		c2.201,0,3.996,1.787,3.996,3.997C296.128,102.261,294.333,104.048,292.132,104.048z"/>
	<path style="fill:#3A3847;" d="M228.185,407.81c-2.209,0-4.036-1.787-4.036-3.997c0-2.209,1.749-3.997,3.95-3.997h0.086
		c2.202,0,3.997,1.788,3.997,3.997C232.182,406.023,230.387,407.81,228.185,407.81z"/>
	<path style="fill:#3A3847;" d="M260.161,439.784c-2.211,0-4.037-1.787-4.037-3.996c0-2.21,1.75-3.997,3.951-3.997h0.086
		c2.201,0,3.992,1.787,3.992,3.997C264.154,437.997,262.363,439.784,260.161,439.784z"/>
	<path style="fill:#3A3847;" d="M143.12,176.507c-2.209,0-4.036-1.788-4.036-3.997s1.749-3.997,3.95-3.997h0.086
		c2.201,0,3.997,1.788,3.997,3.997S145.321,176.507,143.12,176.507z"/>
	<path style="fill:#3A3847;" d="M137.467,159.552c-2.209,0-4.036-1.788-4.036-3.997s1.749-3.997,3.95-3.997h0.086
		c2.202,0,3.997,1.788,3.997,3.997S139.669,159.552,137.467,159.552z"/>
	<path style="fill:#3A3847;" d="M363.56,408.263c-2.217,0-4.043-1.788-4.043-3.997c0-2.21,1.748-3.997,3.949-3.997h0.094
		c2.201,0,3.996,1.787,3.996,3.997C367.556,406.475,365.761,408.263,363.56,408.263z"/>
	<path style="fill:#3A3847;" d="M374.863,351.744c-2.217,0-4.043-1.788-4.043-3.997s1.748-3.996,3.949-3.996h0.094
		c2.203,0,3.998,1.787,3.998,3.996S377.066,351.744,374.863,351.744z"/>
	<path style="fill:#3A3847;" d="M290.056,323.501c-2.219,0-4.045-1.788-4.045-3.997s1.748-3.997,3.951-3.997h0.094
		c2.201,0,3.996,1.788,3.996,3.997S292.257,323.501,290.056,323.501z"/>
	<path style="fill:#3A3847;" d="M222.245,244.344c-2.209,0-4.036-1.787-4.036-3.996c0-2.21,1.749-3.997,3.95-3.997h0.086
		c2.201,0,3.997,1.787,3.997,3.997C226.242,242.557,224.446,244.344,222.245,244.344z"/>
	<path style="fill:#3A3847;" d="M165.727,210.434c-2.209,0-4.036-1.788-4.036-3.997s1.749-3.997,3.95-3.997h0.086
		c2.202,0,3.997,1.788,3.997,3.997S167.928,210.434,165.727,210.434z"/>
	<path style="fill:#3A3847;" d="M188.334,165.211c-2.209,0-4.036-1.787-4.036-3.997c0-2.209,1.749-3.996,3.95-3.996h0.085
		c2.202,0,3.997,1.787,3.997,3.996C192.331,163.424,190.535,165.211,188.334,165.211z"/>
	<path style="fill:#3A3847;" d="M323.997,391.307c-2.217,0-4.043-1.787-4.043-3.997c0-2.209,1.748-3.996,3.949-3.996h0.094
		c2.201,0,3.996,1.787,3.996,3.996C327.993,389.52,326.198,391.307,323.997,391.307z"/>
	<path style="fill:#3A3847;" d="M382.857,393.65c-2.217,0-4.043-1.788-4.043-3.998c0-2.209,1.748-3.996,3.949-3.996h0.094
		c2.201,0,3.998,1.787,3.998,3.996C386.855,391.862,385.058,393.65,382.857,393.65z"/>
	<path style="fill:#3A3847;" d="M100.286,287.904c-2.209,0-4.036-1.787-4.036-3.996s1.749-3.997,3.95-3.997h0.086
		c2.202,0,3.997,1.788,3.997,3.997S102.488,287.904,100.286,287.904z"/>
	<path style="fill:#3A3847;" d="M84.306,279.91c-2.209,0-4.036-1.788-4.036-3.997s1.749-3.997,3.95-3.997h0.086
		c2.201,0,3.997,1.788,3.997,3.997S86.508,279.91,84.306,279.91z"/>
	<path style="fill:#3A3847;" d="M428.025,287.911c-2.201,0-4.027-1.787-4.027-3.996s1.748-3.997,3.949-3.997h0.078
		c2.201,0,3.996,1.788,3.996,3.997S430.226,287.911,428.025,287.911z"/>
	<path style="fill:#3A3847;" d="M388.071,247.95c-2.217,0-4.043-1.787-4.043-3.996c0-2.21,1.748-3.997,3.949-3.997h0.094
		c2.201,0,3.998,1.787,3.998,3.997C392.07,246.163,390.273,247.95,388.071,247.95z"/>
	<path style="fill:#3A3847;" d="M308.118,287.943c-2.201,0-4.027-1.787-4.027-3.996s1.748-3.997,3.949-3.997h0.078
		c2.201,0,3.998,1.788,3.998,3.997S310.32,287.943,308.118,287.943z"/>
	<path style="fill:#3A3847;" d="M204.196,279.91c-2.209,0-4.036-1.788-4.036-3.997s1.749-3.997,3.95-3.997h0.085
		c2.202,0,3.997,1.788,3.997,3.997S206.398,279.91,204.196,279.91z"/>
	<path style="fill:#3A3847;" d="M140.262,295.898c-2.209,0-4.036-1.787-4.036-3.997c0-2.209,1.749-3.997,3.95-3.997h0.086
		c2.201,0,3.997,1.788,3.997,3.997C144.259,294.111,142.464,295.898,140.262,295.898z"/>
	<path style="fill:#3A3847;" d="M124.275,247.936c-2.209,0-4.036-1.788-4.036-3.997s1.749-3.997,3.95-3.997h0.086
		c2.201,0,3.997,1.788,3.997,3.997S126.476,247.936,124.275,247.936z"/>
	<path style="fill:#3A3847;" d="M380.077,311.885c-2.217,0-4.043-1.788-4.043-3.997s1.748-3.996,3.949-3.996h0.094
		c2.201,0,3.998,1.787,3.998,3.996S382.279,311.885,380.077,311.885z"/>
	<path style="fill:#3A3847;" d="M404.044,287.911c-2.201,0-4.029-1.787-4.029-3.996s1.75-3.997,3.951-3.997h0.078
		c2.201,0,3.996,1.788,3.996,3.997S406.245,287.911,404.044,287.911z"/>
	<path style="fill:#3A3847;" d="M148.771,396.959c-2.209,0-4.036-1.788-4.036-3.997s1.749-3.997,3.95-3.997h0.086
		c2.202,0,3.997,1.788,3.997,3.997S150.973,396.959,148.771,396.959z"/>
	<path style="fill:#3A3847;" d="M131.816,402.603c-2.209,0-4.036-1.787-4.036-3.996c0-2.21,1.749-3.998,3.95-3.998h0.086
		c2.201,0,3.997,1.788,3.997,3.998C135.813,400.816,134.017,402.603,131.816,402.603z"/>
	<path style="fill:#3A3847;" d="M372.536,176.523c-2.217,0-4.043-1.788-4.043-3.997s1.748-3.997,3.949-3.997h0.094
		c2.201,0,3.998,1.788,3.998,3.997S374.738,176.523,372.536,176.523z"/>
	<path style="fill:#3A3847;" d="M324.013,165.211c-2.217,0-4.043-1.787-4.043-3.997c0-2.209,1.748-3.996,3.949-3.996h0.094
		c2.201,0,3.996,1.787,3.996,3.996C328.009,163.424,326.214,165.211,324.013,165.211z"/>
	<path style="fill:#3A3847;" d="M295.753,250.02c-2.201,0-4.027-1.788-4.027-3.997s1.748-3.997,3.949-3.997h0.078
		c2.201,0,3.998,1.788,3.998,3.997S297.954,250.02,295.753,250.02z"/>
	<path style="fill:#3A3847;" d="M216.593,317.833c-2.209,0-4.036-1.787-4.036-3.996s1.749-3.997,3.95-3.997h0.085
		c2.202,0,3.997,1.788,3.997,3.997S218.795,317.833,216.593,317.833z"/>
	<path style="fill:#3A3847;" d="M182.69,374.344c-2.209,0-4.036-1.788-4.036-3.997s1.749-3.997,3.95-3.997h0.086
		c2.201,0,3.997,1.788,3.997,3.997S184.891,374.344,182.69,374.344z"/>
	<path style="fill:#3A3847;" d="M137.467,351.729c-2.209,0-4.036-1.788-4.036-3.997s1.749-3.996,3.95-3.996h0.086
		c2.202,0,3.997,1.787,3.997,3.996S139.669,351.729,137.467,351.729z"/>
	<path style="fill:#3A3847;" d="M363.575,216.07c-2.217,0-4.043-1.787-4.043-3.997c0-2.209,1.748-3.996,3.949-3.996h0.094
		c2.201,0,3.996,1.787,3.996,3.996C367.571,214.282,365.777,216.07,363.575,216.07z"/>
	<path style="fill:#3A3847;" d="M357.907,165.211c-2.201,0-4.027-1.787-4.027-3.997c0-2.209,1.748-3.996,3.949-3.996h0.078
		c2.201,0,3.998,1.787,3.998,3.996C361.905,163.424,360.109,165.211,357.907,165.211z"/>
</g>
<path style="fill:#FFD2A6;" d="M329.962,359.59h-12.227c0.078-17.908-14.223-5.917-8.477-17.908
	c2.967-6.394,8.477-5.995,14.238-5.995l0.719-0.078c5.746,0,11.271-0.32,14.301,5.995C344.2,353.595,329.962,341.604,329.962,359.59
	z"/>
<g style="opacity:0.5;">
	<path style="fill:#FFFFFF;" d="M317.253,341.682c2.498-5.401,6.838-5.948,11.584-5.987c-1.498-0.094-3.045-0.086-4.621-0.086
		l-0.719,0.078c-5.762,0-11.271-0.398-14.238,5.995c-5.746,11.991,8.555,0,8.477,17.908h7.994
		C325.808,341.682,311.507,353.673,317.253,341.682z"/>
</g>
<path style="fill:#FFD2A6;" d="M243.314,380.05c12.709-12.709-5.909-14.387,6.636-18.781c6.635-2.397,10.313,1.756,14.313,5.839
	l0.563,0.554c3.996,3.997,8.227,7.596,5.822,14.31c-4.465,12.475-6.072-6.073-18.778,6.636L243.314,380.05z"/>
<g style="opacity:0.5;">
	<path style="fill:#FFFFFF;" d="M251.308,380.05c12.505-12.506-5.262-14.34,6.128-18.579c-2.093-0.991-4.482-1.288-7.487-0.202
		c-12.545,4.395,6.073,6.072-6.636,18.781l8.556,8.557c1.679-1.679,3.154-2.787,4.473-3.521L251.308,380.05z"/>
</g>
<path style="fill:#FFD2A6;" d="M364.669,283.97l-8.635,8.556c-12.709-12.709-14.316,5.831-18.797-6.636
	c-2.311-6.635,1.842-10.313,5.916-14.309l0.484-0.563c4.074-3.997,7.682-8.235,14.301-5.831
	C370.491,269.66,351.945,271.183,364.669,283.97z"/>
<g style="opacity:0.5;">
	<path style="fill:#FFFFFF;" d="M345.23,285.89c-2.311-6.635,1.844-10.313,5.918-14.309l0.484-0.563
		c2.232-2.186,4.34-4.41,6.854-5.613c-0.188-0.069-0.328-0.14-0.547-0.218c-6.619-2.404-10.227,1.834-14.301,5.831l-0.484,0.563
		c-4.074,3.996-8.227,7.674-5.916,14.309c2.902,8.072,4.621,3.178,8.898,2.146C345.839,287.444,345.542,286.757,345.23,285.89z"/>
</g>
<path style="fill:#FFD2A6;" d="M335.644,205.874V218.1c-17.986-0.078-5.994,14.23-17.986,8.478c-6.4-2.959-5.994-8.478-5.994-14.231
	v-0.718c0-5.754-0.406-11.272,5.994-14.31C329.65,191.644,317.657,205.874,335.644,205.874z"/>
<g style="opacity:0.5;">
	<path style="fill:#FFFFFF;" d="M319.657,212.346v-0.718c0-5.215-0.281-10.219,4.434-13.373c-0.578-2.154-1.344-3.349-6.434-0.937
		c-6.4,3.037-5.994,8.556-5.994,14.31v0.718c0,5.754-0.406,11.272,5.994,14.231c5.105,2.451,5.871,1.249,6.434-0.914
		C319.376,222.565,319.657,217.561,319.657,212.346z"/>
</g>
<path style="fill:#A0D468;" d="M299.907,44.08c4.402,0,7.992,3.599,7.992,7.993c0,4.396-3.59,7.994-7.992,7.994
	c-4.467,0-7.994-3.599-7.994-7.994C291.913,47.679,295.441,44.08,299.907,44.08z"/>
<g style="opacity:0.5;">
	<path style="fill:#FFFFFF;" d="M299.907,52.073c0-2.92,1.639-5.371,3.98-6.768c-1.188-0.711-2.498-1.226-3.98-1.226
		c-4.467,0-7.994,3.599-7.994,7.993c0,4.396,3.527,7.994,7.994,7.994c1.482,0,2.793-0.516,3.98-1.226
		C301.546,57.445,299.907,54.993,299.907,52.073z"/>
</g>
<path style="fill:#FFD2A6;" d="M210.621,335.929c4.161,12.631-8.47-1.038-10.71,16.783l-12.068-1.592
	c2.232-17.83-13.435-7.674-6.237-18.868c3.841-5.995,9.273-4.879,14.871-4.161l0.796,0.086
	C202.947,328.896,208.467,329.215,210.621,335.929z"/>
<g style="opacity:0.5;">
	<path style="fill:#FFFFFF;" d="M195.836,351.12c2.233-17.83-13.435-7.674-6.237-18.868c1.632-2.545,3.56-3.763,5.652-4.325
		c-5.16-0.679-10.086-1.233-13.646,4.325c-7.198,11.194,8.47,1.038,6.237,18.868l12.068,1.592c0.047-0.382,0.125-0.671,0.188-1.03
		L195.836,351.12z"/>
</g>
<path style="fill:#FFD2A6;" d="M203.588,205.633c5.995,3.755,4.879,9.188,4.161,14.863l-0.086,0.726
	c-0.719,5.675-1.038,11.187-7.752,13.427c-12.631,4.153,1.038-8.478-16.784-10.788l1.592-12.076
	C202.55,214.103,192.393,198.357,203.588,205.633z"/>
<g style="opacity:0.5;">
	<path style="fill:#FFFFFF;" d="M191.121,223.861l1.593-12.076c9.273,1.202,10.968-2.467,12.045-5.254
		c-0.375-0.305-0.718-0.609-1.171-0.897c-11.194-7.276-1.038,8.47-18.868,6.151l-1.592,12.076
		c17.822,2.311,4.153,14.941,16.784,10.788c0.71-0.234,1.312-0.53,1.881-0.835C201.058,230.972,202.471,225.328,191.121,223.861z"/>
</g>
<path style="fill:#FFD2A6;" d="M180.325,272.541c3.442,4.551,7.119,8.634,3.919,14.949c-5.917,11.826-5.199-6.722-19.423,4.231
	l-7.439-9.595c14.231-11.03-3.997-14.941,8.954-17.743c6.956-1.516,9.992,3.036,13.513,7.595L180.325,272.541z"/>
<g style="opacity:0.5;">
	<path style="fill:#FFFFFF;" d="M165.376,282.127c13.466-10.437-2.084-14.496,7.158-17.275c-1.694-0.749-3.685-1.015-6.198-0.468
		c-12.951,2.802,5.277,6.713-8.954,17.743l7.439,9.595c2.202-1.694,4.005-2.623,5.566-3.123L165.376,282.127z"/>
</g>
<g>
	<path style="fill:#A0D468;" d="M165.462,116.024c3.114,3.114,3.114,8.149,0,11.272c-3.123,3.114-8.158,3.114-11.272,0
		c-3.123-3.123-3.123-8.158,0-11.272C157.303,112.901,162.339,112.901,165.462,116.024z"/>
	<path style="fill:#A0D468;" d="M103.307,370.378c3.114,3.115,3.114,8.15,0,11.272c-3.123,3.114-8.158,3.114-11.272,0
		c-3.123-3.122-3.123-8.157,0-11.272C95.149,367.255,100.184,367.255,103.307,370.378z"/>
	<path style="fill:#A0D468;" d="M76.087,227.936c4.395,0,7.993,3.599,7.993,7.993c0,4.396-3.599,7.994-7.993,7.994
		c-4.396,0-7.994-3.599-7.994-7.994C68.092,231.534,71.691,227.936,76.087,227.936z"/>
</g>
<path style="fill:#FFD2A6;" d="M271.46,142.401c1.514,6.878-3.045,9.992-7.6,13.428l-0.563,0.483
	c-4.551,3.513-8.633,7.189-14.949,3.997c-11.827-5.995,6.722-5.199-4.231-19.43l9.594-7.432
	C264.747,147.6,268.65,129.45,271.46,142.401z"/>
<g style="opacity:0.5;">
	<path style="fill:#FFFFFF;" d="M256.342,160.309c-11.826-5.995,6.721-5.199-4.23-19.43l5.004-3.88
		c-1.054-0.859-2.178-1.983-3.404-3.552l-9.594,7.432c10.953,14.23-7.596,13.435,4.231,19.43c3.396,1.718,6.136,1.421,8.658,0.258
		C256.78,160.473,256.569,160.426,256.342,160.309z"/>
</g>
<g style="opacity:0.5;">
	<path style="fill:#FFFFFF;" d="M159.388,121.659c0-2.92,1.631-5.371,3.981-6.768c-1.194-0.711-2.506-1.226-3.981-1.226
		c-4.474,0-7.994,3.599-7.994,7.993c0,4.396,3.521,7.994,7.994,7.994c1.475,0,2.787-0.516,3.981-1.226
		C161.019,127.031,159.388,124.579,159.388,121.659z"/>
</g>
<g style="opacity:0.5;">
	<path style="fill:#FFFFFF;" d="M76.087,235.929c0-2.919,1.631-5.371,3.981-6.768c-1.194-0.711-2.506-1.226-3.981-1.226
		c-4.474,0-7.994,3.599-7.994,7.993c0,4.396,3.521,7.994,7.994,7.994c1.475,0,2.787-0.516,3.981-1.226
		C77.717,241.3,76.087,238.849,76.087,235.929z"/>
</g>
<g style="opacity:0.5;">
	<path style="fill:#FFFFFF;" d="M97.655,376.015c0-2.92,1.632-5.371,3.981-6.769c-1.194-0.71-2.506-1.226-3.981-1.226
		c-4.473,0-7.993,3.599-7.993,7.994s3.521,7.993,7.993,7.993c1.476,0,2.787-0.515,3.981-1.226
		C99.287,381.385,97.655,378.934,97.655,376.015z"/>
</g>
<g style="opacity:0.5;">
	<path style="fill:#FFFFFF;" d="M176.742,21.371c25.69-10.648,53.747-16.698,83.162-17.205c-1.336-0.023-2.654-0.102-3.998-0.102
		c-30.874,0-60.304,6.175-87.158,17.307l87.197,210.436l3.998-9.648L176.742,21.371z"/>
</g>
<g style="opacity:0.2;">
	<path d="M335.503,21.371c-25.682-10.648-53.738-16.698-83.157-17.205c1.335-0.023,2.654-0.102,3.996-0.102
		c30.872,0,60.301,6.175,87.155,17.307l-87.193,210.436l-3.997-9.648L335.503,21.371z"/>
</g>
<g>
	<path style="fill:#3A3847;" d="M45.555,196.679c-0.507,0-1.022-0.094-1.522-0.305c-2.045-0.835-3.013-3.177-2.17-5.215
		c23.56-57.142,68.072-101.693,125.339-125.432c2.015-0.851,4.372,0.117,5.223,2.162c0.843,2.038-0.125,4.38-2.162,5.223
		c-55.285,22.92-98.267,65.925-121.015,121.093C48.616,195.75,47.125,196.679,45.555,196.679z"/>
	<path style="fill:#3A3847;" d="M255.976,511.853c-30.055,0-60.125-5.933-88.774-17.791
		C110.013,470.386,65.47,425.843,41.777,368.638c-23.724-57.127-23.731-120.164,0-177.486c0.851-2.037,3.178-3.013,5.223-2.162
		c2.038,0.843,3.006,3.185,2.162,5.223c-22.911,55.347-22.911,116.205,0,171.365c22.873,55.23,65.886,98.243,121.101,121.1
		c55.315,22.904,116.139,22.904,171.284,0c55.207-22.856,98.234-65.869,121.186-121.1c22.857-55.23,22.857-116.065,0-171.287
		c-22.842-55.254-65.885-98.29-121.186-121.179c-2.029-0.843-2.998-3.185-2.154-5.223c0.842-2.037,3.168-3.013,5.215-2.162
		c57.283,23.708,101.857,68.282,125.51,125.503c23.67,57.197,23.67,120.203,0,177.408c-23.762,57.205-68.336,101.748-125.51,125.424
		C316.05,505.92,286.027,511.853,255.976,511.853z"/>
	<path style="fill:#3A3847;" d="M256.078,495.865c-28.017,0-56.042-5.534-82.716-16.597
		c-53.217-21.982-94.723-63.425-116.877-116.704c-0.063-0.156-0.117-0.312-0.164-0.476c-21.92-53.216-21.834-111.725,0.25-164.793
		c22.045-53.278,63.52-94.753,116.791-116.783c2.053-0.858,4.387,0.133,5.222,2.162c0.843,2.046-0.125,4.38-2.162,5.223
		c-51.296,21.21-91.233,61.155-112.466,112.467C42.629,251.59,42.605,308.068,63.87,359.419c0.063,0.148,0.117,0.305,0.156,0.452
		c21.374,51.125,61.272,90.898,112.388,112.014c51.327,21.288,107.802,21.312,159.058,0.086
		c51.367-21.279,91.289-61.248,112.396-112.544c21.279-51.257,21.311-107.713,0.078-158.977c-0.844-2.038,0.125-4.38,2.154-5.223
		c2.061-0.858,4.387,0.133,5.23,2.162c22.045,53.239,22.014,111.873-0.078,165.089c-21.92,53.264-63.371,94.777-116.721,116.877
		C311.96,490.363,284.013,495.865,256.078,495.865z"/>
	<path style="fill:#3A3847;" d="M451.632,202.83c-1.563,0-3.045-0.929-3.686-2.467c-21.217-51.21-61.154-91.147-112.475-112.467
		c-2.045-0.851-2.998-3.185-2.154-5.223c0.844-2.045,3.201-3.021,5.215-2.162c53.303,22.139,94.77,63.614,116.799,116.791
		c0.844,2.038-0.125,4.38-2.17,5.223C452.661,202.737,452.146,202.83,451.632,202.83z"/>
	<path style="fill:#3A3847;" d="M343.075,25.454c-0.5,0-1.029-0.094-1.529-0.305c-55.223-22.857-116.062-22.857-171.284,0
		c-2.038,0.866-4.372-0.125-5.223-2.162c-0.843-2.038,0.125-4.38,2.162-5.223c57.205-23.685,120.2-23.685,177.405,0
		c2.045,0.843,3.012,3.185,2.17,5.223C346.136,24.525,344.654,25.454,343.075,25.454z"/>
	<path style="fill:#3A3847;" d="M174.891,40.24c-1.569,0-3.052-0.93-3.692-2.467c-0.843-2.038,0.125-4.38,2.163-5.223
		c53.161-22.021,111.792-22.014,165.077,0c2.045,0.843,3.014,3.177,2.17,5.215c-0.826,2.045-3.199,3.036-5.215,2.17
		c-51.318-21.194-107.77-21.21-158.972,0C175.922,40.146,175.399,40.24,174.891,40.24z"/>
	<path style="fill:#3A3847;" d="M255.945,283.892c-1.569,0-3.06-0.93-3.692-2.467L165.04,70.957c-0.843-2.037,0.117-4.38,2.154-5.23
		c2.015-0.819,4.38,0.109,5.23,2.154l87.213,210.483c0.842,2.045-0.125,4.379-2.162,5.223
		C256.976,283.798,256.452,283.892,255.945,283.892z"/>
	<path style="fill:#3A3847;" d="M255.945,283.892c-0.508,0-1.03-0.094-1.53-0.305c-2.037-0.844-3.005-3.186-2.162-5.223
		l87.123-210.467c0.842-2.029,3.184-3.005,5.23-2.178c2.029,0.843,3.012,3.178,2.17,5.223l-6.074,14.785l-81.064,195.698
		C258.997,282.962,257.515,283.892,255.945,283.892z"/>
	<path style="fill:#3A3847;" d="M255.945,235.929c-1.569,0-3.052-0.929-3.692-2.467L165.04,22.995
		c-0.843-2.038,0.117-4.38,2.154-5.23c2.015-0.82,4.38,0.109,5.23,2.154l6.159,14.785l81.054,195.698
		c0.842,2.037-0.125,4.379-2.162,5.222C256.976,235.835,256.452,235.929,255.945,235.929z"/>
	<path style="fill:#3A3847;" d="M255.945,235.929c-0.508,0-1.03-0.094-1.53-0.305c-2.037-0.843-3.005-3.177-2.162-5.222
		l80.971-195.69c0.109-0.242,0.234-0.477,0.375-0.694l5.777-14.083c0.842-2.029,3.184-3.014,5.23-2.178
		c2.029,0.843,3.012,3.177,2.17,5.223l-6.074,14.785c-0.109,0.249-0.234,0.483-0.375,0.71l-80.689,194.987
		C258.997,235,257.515,235.929,255.945,235.929z"/>
	<path style="fill:#3A3847;" d="M255.945,96.039c-13.224,0-23.981-10.758-23.981-23.981s10.757-23.981,23.981-23.981
		c13.22,0,23.978,10.758,23.978,23.981S269.165,96.039,255.945,96.039z M255.945,56.071c-8.813,0-15.987,7.174-15.987,15.987
		s7.174,15.987,15.987,15.987c8.818,0,15.984-7.174,15.984-15.987S264.763,56.071,255.945,56.071z"/>
	<path style="fill:#3A3847;" d="M255.945,463.75c-13.224,0-23.981-10.757-23.981-23.981s10.757-23.98,23.981-23.98
		c13.22,0,23.978,10.757,23.978,23.98C279.923,452.993,269.165,463.75,255.945,463.75z M255.945,423.781
		c-8.813,0-15.987,7.174-15.987,15.987s7.174,15.988,15.987,15.988c8.818,0,15.984-7.175,15.984-15.988
		S264.763,423.781,255.945,423.781z"/>
	<path style="fill:#3A3847;" d="M251.87,392.603c-1.022,0-2.045-0.391-2.826-1.171c-1.561-1.562-1.561-4.091,0-5.651
		c7.658-7.658,13.092-6.44,17.389-3.981c0.141-0.32,0.281-0.702,0.453-1.179c1.279-3.583-0.031-5.324-4.133-9.383l-0.758-0.75
		c-0.008-0.008-0.586-0.578-0.594-0.586c-4.676-4.801-6.471-6.205-10.093-4.871c-0.484,0.164-0.875,0.32-1.194,0.453
		c2.459,4.316,3.661,9.758-3.974,17.393c-1.562,1.562-4.091,1.562-5.652,0s-1.561-4.091,0-5.652
		c4.606-4.605,3.708-6.096,2.459-8.165c-0.882-1.452-2.209-3.653-1.249-6.331c1.015-2.818,3.934-4.184,6.932-5.23
		c8.72-3.192,14.107,2.318,18.005,6.332c0.016,0.007,1,0.998,1.016,1.006l0.717,0.727c3.873,3.825,9.166,9.063,6.043,17.76
		c-1.063,2.974-2.436,5.87-5.262,6.869c-2.67,0.961-4.871-0.375-6.318-1.241c-2.047-1.241-3.529-2.107-8.135,2.482
		C253.915,392.212,252.893,392.603,251.87,392.603z"/>
	<path style="fill:#3A3847;" d="M251.87,392.603c-1.022,0-2.045-0.391-2.826-1.171l-8.556-8.556c-1.561-1.562-1.561-4.091,0-5.652
		s4.09-1.561,5.652,0l8.556,8.557c1.562,1.561,1.562,4.09,0,5.651C253.915,392.212,252.893,392.603,251.87,392.603z"/>
	<path style="fill:#3A3847;" d="M252.978,165.524c-1.967,0-4.105-0.477-6.432-1.647c-2.833-1.437-5.542-3.169-6.183-6.089
		c-0.609-2.764,0.976-4.762,2.022-6.089c1.476-1.866,2.537-3.216-1.437-8.384c-1.343-1.749-1.015-4.255,0.734-5.605
		c1.741-1.343,4.254-1.022,5.605,0.734c6.565,8.532,4.715,13.755,1.756,17.704c0.296,0.172,0.664,0.367,1.116,0.594
		c3.373,1.71,5.292,0.608,9.899-2.975l0.795-0.616c0.016-0.016,1.086-0.883,1.102-0.89c4.82-3.623,6.428-5.223,5.602-9.001
		c-0.109-0.484-0.203-0.891-0.297-1.226c-4.563,1.873-10.09,2.342-16.703-6.128c-1.358-1.741-1.046-4.255,0.695-5.613
		c1.74-1.358,4.246-1.046,5.612,0.695c3.997,5.128,5.575,4.434,7.772,3.481c1.529-0.688,3.855-1.718,6.4-0.43
		c2.67,1.358,3.654,4.419,4.324,7.518c2.016,9.126-4.121,13.731-8.602,17.096c-0.063,0.039-0.969,0.781-1.016,0.82l-0.779,0.601
		C261.878,162.479,257.966,165.524,252.978,165.524z"/>
	<path style="fill:#3A3847;" d="M244.118,144.875c-1.194,0-2.374-0.53-3.162-1.545c-1.351-1.749-1.03-4.263,0.71-5.613l9.594-7.432
		c1.748-1.351,4.254-1.038,5.612,0.711c1.35,1.748,1.03,4.262-0.71,5.612l-9.594,7.432
		C245.836,144.603,244.977,144.875,244.118,144.875z"/>
	<path style="fill:#3A3847;" d="M211.979,471.743c-2.209,0-3.997-1.787-3.997-3.996c0-1.882-0.367-3.264-1-3.778
		c-0.608-0.492-1.748-0.414-2.092-0.32c-2.17,0.43-4.262-0.882-4.762-3.005c-0.492-2.124,0.772-4.239,2.888-4.771
		c0.507-0.124,5.074-1.163,8.868,1.78c2.716,2.123,4.09,5.52,4.09,10.094C215.976,469.956,214.189,471.743,211.979,471.743z"/>
	<path style="fill:#3A3847;" d="M314.318,471.907c-1.764,0-4.17-0.39-6.324-2.061c-2.717-2.123-4.09-5.52-4.09-10.094
		c0-2.209,1.795-3.996,3.996-3.996c2.217,0,3.998,1.787,3.998,3.996c0,1.882,0.375,3.264,0.998,3.778
		c0.609,0.492,1.75,0.391,2.094,0.32c2.154-0.438,4.277,0.882,4.762,3.005c0.498,2.124-0.766,4.239-2.889,4.771
		C316.644,471.681,315.659,471.907,314.318,471.907z"/>
	<path style="fill:#3A3847;" d="M210.395,64.228c-1.764,0-4.168-0.39-6.315-2.061c-2.717-2.123-4.091-5.52-4.091-10.094
		c0-2.209,1.788-3.997,3.997-3.997s3.997,1.788,3.997,3.997c0,1.882,0.367,3.263,1,3.778c0.608,0.484,1.732,0.391,2.092,0.32
		c2.146-0.406,4.27,0.89,4.762,3.005c0.492,2.124-0.772,4.239-2.888,4.771C212.729,64.002,211.745,64.228,210.395,64.228z"/>
	<path style="fill:#3A3847;" d="M299.907,64.064c-6.605,0-11.992-5.378-11.992-11.99s5.387-11.99,11.992-11.99
		c6.619,0,11.99,5.378,11.99,11.99S306.527,64.064,299.907,64.064z M299.907,48.076c-2.234,0-3.998,1.757-3.998,3.997
		s1.764,3.997,3.998,3.997c2.201,0,3.996-1.796,3.996-3.997S302.109,48.076,299.907,48.076z"/>
	<path style="fill:#3A3847;" d="M142.878,190.823c-6.417,0-12.428-2.482-16.94-6.986c-9.36-9.367-9.352-24.598,0-33.95
		c9.024-9.008,24.863-9.008,33.872,0c4.544,4.544,7.05,10.57,7.05,16.972s-2.506,12.436-7.05,16.979
		C155.305,188.341,149.295,190.823,142.878,190.823z M142.878,150.895c-4.286,0-8.291,1.654-11.288,4.645
		c-6.237,6.237-6.237,16.401,0,22.646c5.987,5.972,16.565,6.003,22.568,0c3.037-3.037,4.707-7.058,4.707-11.327
		c0-4.263-1.67-8.283-4.707-11.319C151.16,152.541,147.155,150.895,142.878,150.895z"/>
	<path style="fill:#3A3847;" d="M368.978,416.944c-6.402,0-12.428-2.498-16.971-7.042c-4.545-4.496-7.043-10.522-7.043-16.947
		c0-6.417,2.498-12.436,7.059-16.939c9.055-9.056,24.84-9.071,33.926,0.016c9.336,9.336,9.336,24.527,0,33.871
		C381.405,414.446,375.378,416.944,368.978,416.944z M368.978,376.975c-4.262,0-8.291,1.671-11.32,4.707
		c-3.043,3.005-4.699,7.002-4.699,11.28c0,4.27,1.656,8.274,4.684,11.272c6.105,6.089,16.598,6.073,22.654,0.016
		c6.23-6.222,6.23-16.347,0-22.568C377.267,378.646,373.239,376.975,368.978,376.975z"/>
	<path style="fill:#3A3847;" d="M329.962,363.587c-2.203,0-3.998-1.788-3.998-3.997c0-10.804,4.684-13.802,9.461-15.121
		c-0.141-0.32-0.297-0.702-0.514-1.155c-1.656-3.427-3.873-3.763-9.9-3.708h-0.795l-1.703,0.078
		c-5.869,0.023-8.055,0.265-9.617,3.677c-0.234,0.469-0.404,0.858-0.545,1.187c4.777,1.312,9.43,4.302,9.383,15.059
		c0,2.201-1.795,3.981-3.998,3.981c0,0,0,0-0.016,0c-2.201-0.008-3.98-1.804-3.98-4.013c0.031-6.456-1.623-6.862-3.918-7.424
		c-1.656-0.406-4.139-1.015-5.355-3.591c-1.281-2.709-0.188-5.738,1.186-8.604c3.857-8.313,11.367-8.259,16.893-8.267l2.451-0.078
		c5.652-0.078,13.146-0.031,17.129,8.26c1.357,2.888,2.436,5.909,1.154,8.61c-1.217,2.568-3.684,3.185-5.324,3.591
		c-2.326,0.577-3.996,0.991-3.996,7.518C333.958,361.799,332.179,363.587,329.962,363.587z"/>
	<path style="fill:#3A3847;" d="M329.962,363.587h-12.227c-2.201,0-3.996-1.788-3.996-3.997c0-2.21,1.795-3.997,3.996-3.997h12.227
		c2.217,0,3.996,1.787,3.996,3.997C333.958,361.799,332.179,363.587,329.962,363.587z"/>
	<path style="fill:#3A3847;" d="M196.008,239.481c-1.249,0-2.451-0.265-3.528-0.952c-2.404-1.53-2.701-4.075-2.904-5.753
		c-0.289-2.389-0.491-4.114-6.963-4.949c-2.186-0.289-3.731-2.287-3.45-4.481c0.289-2.193,2.209-3.739,4.48-3.45
		c10.695,1.39,13.083,6.425,13.786,11.327c0.344-0.094,0.75-0.211,1.233-0.367c3.622-1.21,4.2-3.372,4.926-9.227l0.109-0.906
		c0.281-2.193,2.295-3.786,4.465-3.466c2.193,0.281,3.739,2.279,3.466,4.466l-0.109,0.882c-0.672,5.449-1.593,12.912-10.344,15.839
		C199.443,239.013,197.678,239.481,196.008,239.481z"/>
	<path style="fill:#3A3847;" d="M207.757,224.492c-0.172,0-0.336-0.008-0.508-0.031c-2.193-0.28-3.739-2.279-3.466-4.465
		l0.133-1.015c0.757-5.77,0.733-7.971-2.451-9.961c-0.438-0.289-0.804-0.508-1.116-0.688c-1.897,4.567-5.465,8.798-16.144,7.416
		c-2.186-0.288-3.731-2.295-3.451-4.48c0.289-2.186,2.326-3.763,4.481-3.45c6.456,0.858,7.057-0.766,7.9-2.982
		c0.609-1.585,1.522-3.974,4.223-4.855c2.857-0.921,5.73,0.555,8.407,2.303c7.76,4.855,6.784,12.303,6.074,17.736l-0.125,0.976
		C211.457,223.018,209.739,224.492,207.757,224.492z"/>
	<path style="fill:#3A3847;" d="M183.135,227.858c-0.179,0-0.351-0.008-0.531-0.031c-2.186-0.289-3.731-2.303-3.442-4.489
		l1.592-12.076c0.289-2.201,2.334-3.739,4.489-3.442c2.186,0.289,3.731,2.303,3.442,4.488l-1.593,12.076
		C186.827,226.398,185.11,227.858,183.135,227.858z"/>
	<path style="fill:#3A3847;" d="M357.626,447.841c-1.014,0-2.045-0.391-2.824-1.171c-1.328-1.327-2.686-1.96-3.357-1.952
		c-0.781,0.086-1.5,0.945-1.701,1.241c-1.188,1.827-3.639,2.412-5.48,1.233c-1.859-1.155-2.451-3.544-1.328-5.409
		c0.266-0.453,2.779-4.411,7.51-4.996c3.467-0.422,6.793,1.007,10.008,4.23c1.563,1.562,1.563,4.091,0,5.652
		C359.673,447.45,358.657,447.841,357.626,447.841z"/>
	<path style="fill:#3A3847;" d="M425.886,377.505c-3.014,0-5.996-1.436-8.885-4.285c-1.561-1.554-1.576-4.083-0.031-5.652
		c1.547-1.561,4.076-1.592,5.652-0.031c1.375,1.351,2.607,2.007,3.467,1.968c0.873-0.117,1.639-1.171,1.654-1.187
		c1.141-1.89,3.592-2.482,5.48-1.366c1.889,1.14,2.514,3.591,1.373,5.487c-0.279,0.445-2.777,4.396-7.51,4.996
		C426.683,377.482,426.292,377.505,425.886,377.505z"/>
	<path style="fill:#3A3847;" d="M98.03,196.609c-3.029,0-6.003-1.444-8.86-4.302c-1.561-1.561-1.561-4.09,0-5.651
		c1.562-1.562,4.091-1.562,5.652,0c1.319,1.319,2.49,1.928,3.38,1.951c0.812-0.086,1.569-0.968,1.772-1.272
		c1.202-1.803,3.669-2.365,5.503-1.187c1.834,1.171,2.412,3.567,1.272,5.426c-0.273,0.445-2.826,4.402-7.588,4.965
		C98.787,196.585,98.405,196.609,98.03,196.609z"/>
	<path style="fill:#3A3847;" d="M159.825,133.626c-3.2,0-6.198-1.241-8.462-3.505c-2.264-2.264-3.513-5.276-3.513-8.47
		c0-3.192,1.249-6.198,3.513-8.454c4.504-4.527,12.389-4.535,16.924,0c4.661,4.66,4.661,12.248,0,16.924
		C166.015,132.385,163.018,133.626,159.825,133.626z M159.825,117.678c-1.062,0-2.053,0.414-2.81,1.171
		c-0.757,0.758-1.171,1.749-1.171,2.803c0,1.062,0.414,2.061,1.171,2.818c1.499,1.499,4.122,1.507,5.621,0
		c1.546-1.554,1.546-4.075,0-5.621C161.879,118.092,160.879,117.678,159.825,117.678z"/>
	<path style="fill:#3A3847;" d="M275.613,275.734c-1.576,0-3.059-0.929-3.699-2.467c-0.844-2.045,0.125-4.379,2.17-5.223
		l175.346-72.536c0.219-0.148,0.438-0.273,0.688-0.375l14.785-6.073c2.045-0.819,4.371,0.148,5.215,2.178
		c0.844,2.045-0.141,4.38-2.17,5.223l-14.113,5.792c-0.203,0.141-0.438,0.266-0.672,0.359l-176.018,72.817
		C276.644,275.64,276.113,275.734,275.613,275.734z"/>
	<path style="fill:#3A3847;" d="M45.469,371.105c-1.569,0-3.06-0.93-3.692-2.467c-0.843-2.046,0.125-4.38,2.163-5.223
		l190.889-79.063c2.053-0.851,4.379,0.125,5.223,2.163c0.843,2.037-0.125,4.379-2.163,5.223L47,370.8
		C46.5,371.011,45.977,371.105,45.469,371.105z"/>
	<path style="fill:#3A3847;" d="M168.732,494.366c-0.515,0-1.03-0.102-1.538-0.305c-2.037-0.851-2.997-3.192-2.154-5.229
		l79.141-190.882c0.851-2.045,3.201-3.013,5.222-2.162c2.038,0.844,3.006,3.186,2.163,5.223l-79.141,190.896
		C171.785,493.446,170.294,494.366,168.732,494.366z"/>
	<path style="fill:#3A3847;" d="M343.075,494.366c-1.561,0-3.061-0.929-3.684-2.475l-79.066-190.88
		c-0.844-2.037,0.123-4.379,2.162-5.223c2.057-0.851,4.383,0.125,5.227,2.162l79.063,190.897c0.842,2.037-0.125,4.371-2.17,5.214
		C344.107,494.273,343.591,494.366,343.075,494.366z"/>
	<path style="fill:#3A3847;" d="M236.281,275.734c-0.508,0-1.031-0.094-1.53-0.305l-190.593-79c-1.53-0.563-2.646-2.029-2.646-3.747
		c0-2.74,3.044-4.77,5.589-3.685l14.707,6.151l176.002,72.896c2.038,0.844,3.005,3.186,2.163,5.223
		C239.333,274.805,237.85,275.734,236.281,275.734z"/>
	<path style="fill:#3A3847;" d="M466.417,371.105c-0.516,0-1.031-0.094-1.531-0.305l-190.959-79.141
		c-2.045-0.844-3.014-3.186-2.17-5.223c0.859-2.038,3.217-3.006,5.23-2.162l190.959,79.141c2.045,0.843,3.014,3.185,2.17,5.223
		C469.476,370.175,467.993,371.105,466.417,371.105z"/>
	<path style="fill:#3A3847;" d="M96.071,303.876c-13.224,0-23.981-10.758-23.981-23.981s10.757-23.981,23.981-23.981
		s23.981,10.758,23.981,23.981S109.295,303.876,96.071,303.876z M96.071,263.907c-8.813,0-15.987,7.174-15.987,15.987
		s7.174,15.987,15.987,15.987s15.988-7.174,15.988-15.987S104.884,263.907,96.071,263.907z"/>
	<path style="fill:#3A3847;" d="M415.816,303.876c-13.225,0-23.98-10.758-23.98-23.981s10.756-23.981,23.98-23.981
		s23.98,10.758,23.98,23.981S429.04,303.876,415.816,303.876z M415.816,263.907c-8.807,0-15.988,7.174-15.988,15.987
		s7.182,15.987,15.988,15.987c8.82,0,15.988-7.174,15.988-15.987S424.636,263.907,415.816,263.907z"/>
	<path style="fill:#3A3847;" d="M364.669,287.966c-1.031,0-2.063-0.39-2.842-1.179c-7.604-7.657-6.449-13.075-4.014-17.369
		c-0.328-0.132-0.717-0.288-1.217-0.468c-3.514-1.28-5.23,0.039-9.305,4.074l-0.844,0.852c-1.592,1.545-4.105,1.521-5.668-0.055
		c-1.545-1.577-1.514-4.114,0.063-5.66l0.828-0.804c3.824-3.81,9.055-9.04,17.643-5.925c2.965,1.062,5.885,2.436,6.9,5.254
		c0.953,2.67-0.359,4.848-1.234,6.291c-1.217,2.046-2.107,3.521,2.514,8.174c1.563,1.562,1.563,4.098-0.016,5.651
		C366.698,287.576,365.683,287.966,364.669,287.966z"/>
	<path style="fill:#3A3847;" d="M356.034,296.523c-1.031,0-2.045-0.391-2.826-1.172c-4.621-4.613-6.088-3.715-8.15-2.482
		c-1.451,0.875-3.668,2.187-6.307,1.242c-2.826-1.008-4.199-3.896-5.277-6.87c-3.061-8.79,2.389-14.13,6.387-18.017
		c1.576-1.554,4.355-1.78,5.9-0.188c1.547,1.576,1.764,3.855,0.203,5.401c-0.016,0-0.516,0.5-0.531,0.5
		c-4.293,4.208-5.682,6.003-4.418,9.633c0.156,0.461,0.313,0.835,0.438,1.147c4.324-2.475,9.773-3.653,17.408,3.981
		c1.561,1.562,1.561,4.091,0,5.651C358.079,296.132,357.05,296.523,356.034,296.523z"/>
	<path style="fill:#3A3847;" d="M356.034,296.523c-1.031,0-2.061-0.398-2.842-1.188c-1.561-1.561-1.545-4.098,0.031-5.651
		l8.635-8.556c1.561-1.554,4.105-1.538,5.65,0.031c1.547,1.562,1.531,4.098-0.031,5.651l-8.633,8.556
		C358.064,296.14,357.05,296.523,356.034,296.523z"/>
	<path style="fill:#3A3847;" d="M164.821,295.718c-1.194,0-2.381-0.539-3.169-1.561c-1.343-1.749-1.015-4.255,0.733-5.605
		c8.509-6.558,13.747-4.707,17.713-1.771c0.164-0.289,0.352-0.648,0.57-1.078c1.717-3.388,0.648-5.285-2.849-9.859l-0.68-0.89
		c-1.334-1.765-0.983-4.271,0.773-5.597c1.764-1.328,4.27-0.992,5.597,0.772l0.656,0.858c3.278,4.286,7.775,10.164,3.646,18.306
		c-1.413,2.818-3.123,5.527-6.035,6.175c-2.755,0.633-4.777-0.96-6.104-2.006c-1.866-1.476-3.232-2.576-8.416,1.429
		C166.531,295.445,165.672,295.718,164.821,295.718z"/>
	<path style="fill:#3A3847;" d="M157.382,286.124c-1.194,0-2.373-0.531-3.161-1.546c-1.351-1.749-1.03-4.255,0.71-5.612
		c5.168-4.005,4.474-5.582,3.498-7.76c-0.687-1.546-1.725-3.872-0.437-6.409c1.351-2.662,4.402-3.653,7.502-4.317
		c9.055-2.021,13.63,3.997,16.971,8.346l0.547,0.71c1.35,1.749,1.03,4.255-0.719,5.605c-1.741,1.335-4.254,1.038-5.604-0.719
		l-0.563-0.733c-3.575-4.668-5.191-6.183-8.938-5.402c-0.476,0.102-0.866,0.203-1.187,0.289c1.882,4.574,2.358,10.102-6.167,16.713
		C159.099,285.851,158.24,286.124,157.382,286.124z"/>
	<path style="fill:#3A3847;" d="M164.821,295.718c-1.187,0-2.373-0.531-3.161-1.545l-7.439-9.595
		c-1.351-1.749-1.03-4.255,0.71-5.612c1.741-1.343,4.255-1.047,5.613,0.71l7.439,9.594c1.351,1.749,1.03,4.255-0.711,5.613
		C166.539,295.445,165.68,295.718,164.821,295.718z"/>
	<path style="fill:#3A3847;" d="M435.769,335.812c-1.779,0-3.389-1.179-3.842-2.99c-0.123-0.507-1.17-5.098,1.781-8.867
		c2.123-2.717,5.512-4.091,10.086-4.091c2.217,0,3.996,1.787,3.996,3.997c0,2.209-1.779,3.996-3.996,3.996
		c-1.875,0-3.264,0.367-3.779,1c-0.484,0.616-0.391,1.748-0.313,2.092c0.438,2.131-0.889,4.27-3.012,4.762
		C436.378,335.781,436.081,335.812,435.769,335.812z"/>
	<path style="fill:#3A3847;" d="M435.8,231.932c-2.201,0-3.996-1.787-3.996-3.996c0-2.21,1.795-3.997,3.996-3.997
		c1.889,0,3.264-0.367,3.777-0.999c0.5-0.617,0.406-1.749,0.328-2.093c-0.453-2.131,0.875-4.27,2.998-4.762
		c2.154-0.468,4.246,0.766,4.777,2.889c0.125,0.507,1.156,5.098-1.779,8.868C443.779,230.558,440.374,231.932,435.8,231.932z"/>
	<path style="fill:#3A3847;" d="M76.087,335.851c-2.209,0-3.997-1.788-3.997-3.997s1.788-3.997,3.997-3.997
		c1.881,0,3.263-0.367,3.778-0.999c0.491-0.616,0.397-1.749,0.319-2.092c-0.444-2.132,0.883-4.271,3.006-4.762
		c2.162-0.469,4.247,0.765,4.77,2.888c0.125,0.508,1.163,5.098-1.78,8.868C84.056,334.477,80.661,335.851,76.087,335.851z"/>
	<path style="fill:#3A3847;" d="M76.087,247.92c-6.612,0-11.991-5.379-11.991-11.991s5.379-11.99,11.991-11.99
		c6.611,0,11.99,5.378,11.99,11.99S82.698,247.92,76.087,247.92z M76.087,231.932c-2.202,0-3.997,1.796-3.997,3.997
		s1.795,3.997,3.997,3.997c2.201,0,3.997-1.796,3.997-3.997S78.288,231.932,76.087,231.932z"/>
	<path style="fill:#3A3847;" d="M142.878,416.944c-6.425,0-12.443-2.506-16.956-7.058c-4.52-4.48-7.026-10.507-7.026-16.932
		c0-6.417,2.506-12.436,7.057-16.939c8.961-9.056,24.863-9.087,33.872,0.031c4.521,4.473,7.034,10.491,7.034,16.908
		c0,6.425-2.506,12.451-7.065,16.963C155.321,414.438,149.302,416.944,142.878,416.944z M142.878,376.975
		c-4.271,0-8.275,1.671-11.272,4.691c-3.052,3.021-4.715,7.018-4.715,11.296c0,4.27,1.663,8.274,4.684,11.272
		c6.05,6.097,16.581,6.081,22.568,0.031c3.06-3.029,4.723-7.034,4.723-11.304c0-4.271-1.67-8.275-4.691-11.265
		C151.152,378.638,147.148,376.975,142.878,376.975z"/>
	<path style="fill:#3A3847;" d="M368.978,190.878c-6.402,0-12.428-2.498-16.971-7.041c-9.275-9.375-9.275-24.59-0.016-33.935
		c9.148-9.055,24.871-9.023,33.941-0.031c9.289,9.376,9.289,24.591,0.031,33.95C381.405,188.38,375.378,190.878,368.978,190.878z
		 M368.978,150.895c-4.277,0-8.307,1.654-11.336,4.66c-6.166,6.222-6.15,16.394,0.031,22.646c6.043,6.026,16.566,6.042,22.623-0.016
		c6.168-6.237,6.184-16.409-0.016-22.662C377.282,152.549,373.255,150.895,368.978,150.895z"/>
	<path style="fill:#3A3847;" d="M311.663,215.625c-2.201,0-3.998-1.788-3.998-3.997v-0.953c-0.016-5.495-0.047-13.013,8.291-16.971
		c2.857-1.358,5.902-2.428,8.588-1.147c2.561,1.218,3.184,3.692,3.59,5.332c0.578,2.318,0.984,3.989,7.51,3.989
		c2.217,0,3.998,1.787,3.998,3.996c0,2.21-1.781,3.997-3.998,3.997c-10.803,0-13.801-4.684-15.113-9.453
		c-0.328,0.133-0.701,0.297-1.154,0.515c-3.436,1.632-3.732,3.833-3.717,9.704v0.991
		C315.659,213.837,313.88,215.625,311.663,215.625z"/>
	<path style="fill:#3A3847;" d="M321.921,231.94c-1.967,0-4.014-0.812-5.98-1.756c-8.322-3.849-8.291-11.382-8.275-16.886v-0.952
		c0-2.209,1.797-3.997,3.998-3.997c2.217,0,3.996,1.788,3.996,3.997v0.991c-0.016,5.848,0.281,8.041,3.686,9.61
		c0.469,0.226,0.857,0.405,1.186,0.538c1.328-4.746,4.311-9.383,14.973-9.383c2.342,0.008,4.154,1.748,4.139,4.013
		c0,2.201-1.797,3.98-3.998,3.98c-0.063-0.016-0.109,0-0.172,0c-6.369,0-6.775,1.655-7.338,3.95
		c-0.406,1.64-1.029,4.122-3.605,5.332C323.685,231.777,322.81,231.94,321.921,231.94z"/>
	<path style="fill:#3A3847;" d="M335.644,222.096c-2.201,0-3.996-1.787-3.996-3.996v-12.226c0-2.209,1.795-3.996,3.996-3.996
		c2.217,0,3.998,1.787,3.998,3.996V218.1C339.642,220.309,337.861,222.096,335.644,222.096z"/>
	<path style="fill:#3A3847;" d="M199.919,356.709c-0.172,0-0.336-0.008-0.507-0.031c-2.186-0.273-3.739-2.271-3.466-4.465
		c1.343-10.703,6.354-13.092,11.249-13.802c-0.086-0.336-0.211-0.742-0.367-1.233c-1.171-3.63-3.31-4.208-9.149-4.926l-0.906-0.109
		c-2.194-0.281-3.739-2.279-3.466-4.466c0.281-2.193,2.303-3.793,4.466-3.466l0.882,0.109c5.465,0.672,12.951,1.593,15.776,10.391
		c0.984,2.981,1.679,6.128,0.07,8.649c-1.522,2.396-4.059,2.701-5.737,2.904c-2.365,0.28-4.075,0.491-4.887,6.947
		C203.619,355.234,201.902,356.709,199.919,356.709z"/>
	<path style="fill:#3A3847;" d="M187.85,355.116c-0.172,0-0.336-0.008-0.508-0.031c-2.186-0.272-3.739-2.271-3.466-4.465
		c0.804-6.448-0.804-7.064-3.029-7.916c-1.584-0.601-3.973-1.514-4.855-4.215c-0.937-2.85,0.531-5.723,2.249-8.4
		c4.996-7.782,12.396-6.799,17.798-6.088l0.945,0.124c2.193,0.281,3.739,2.288,3.458,4.474s-2.334,3.755-4.473,3.458l-0.976-0.133
		c-5.792-0.757-7.962-0.741-10.023,2.482c-0.266,0.422-0.484,0.772-0.648,1.077c4.567,1.89,8.829,5.441,7.486,16.136
		C191.558,353.642,189.833,355.116,187.85,355.116z"/>
	<path style="fill:#3A3847;" d="M199.919,356.709c-0.18,0-0.352-0.008-0.531-0.031l-12.069-1.593
		c-2.186-0.288-3.731-2.303-3.442-4.488c0.289-2.201,2.303-3.731,4.488-3.442l12.069,1.593c2.186,0.288,3.731,2.303,3.443,4.488
		C203.611,355.249,201.894,356.709,199.919,356.709z"/>
	<path style="fill:#3A3847;" d="M419.78,193.47c-0.686,0-1.389-0.18-2.029-0.562c-0.453-0.273-4.402-2.779-4.996-7.518
		c-0.406-3.411,1.016-6.776,4.23-10.008c1.563-1.562,4.092-1.562,5.652,0c1.563,1.562,1.563,4.091,0,5.651
		c-1.311,1.327-2.029,2.553-1.951,3.357c0.094,0.78,0.953,1.506,1.248,1.701c1.828,1.187,2.391,3.646,1.234,5.488
		C422.404,192.799,421.109,193.47,419.78,193.47z"/>
	<path style="fill:#3A3847;" d="M346.355,120.02c-1.016,0-2.029-0.382-2.811-1.155c-1.561-1.553-1.576-4.082-0.031-5.651
		c1.359-1.366,2.076-2.631,1.967-3.466c-0.109-0.875-1.17-1.64-1.186-1.647c-1.891-1.14-2.498-3.599-1.359-5.488
		c1.141-1.896,3.607-2.482,5.48-1.365c0.453,0.272,4.402,2.771,4.996,7.51c0.422,3.427-0.984,6.814-4.215,10.077
		C348.415,119.622,347.384,120.02,346.355,120.02z"/>
	<path style="fill:#3A3847;" d="M165.462,447.841c-1.023,0-2.045-0.391-2.826-1.171c-1.562-1.562-1.562-4.091,0-5.652
		c1.351-1.351,2.068-2.592,1.983-3.411c-0.086-0.788-0.96-1.522-1.257-1.717c-1.834-1.18-2.412-3.631-1.265-5.48
		c1.155-1.858,3.552-2.451,5.41-1.351c0.453,0.273,4.45,2.779,5.043,7.533c0.43,3.435-1.007,6.822-4.262,10.078
		C167.507,447.45,166.484,447.841,165.462,447.841z"/>
	<path style="fill:#3A3847;" d="M97.671,387.99c-3.224,0-6.245-1.249-8.501-3.513c-4.66-4.661-4.66-12.249,0-16.925
		c4.543-4.527,12.514-4.52,16.963,0.039c2.241,2.186,3.521,5.191,3.537,8.4c0.016,3.2-1.226,6.213-3.498,8.485
		C103.916,386.74,100.895,387.99,97.671,387.99z M97.663,372.041c-1.085,0-2.092,0.413-2.841,1.163c-1.545,1.553-1.545,4.074,0,5.62
		c1.515,1.515,4.184,1.515,5.699,0c0.75-0.749,1.163-1.74,1.155-2.794c-0.008-1.047-0.429-2.046-1.202-2.795
		C99.693,372.439,98.725,372.041,97.663,372.041z"/>
</g>
<g>
</g>
<g>
</g>
<g>
</g>
<g>
</g>
<g>
</g>
<g>
</g>
<g>
</g>
<g>
</g>
<g>
</g>
<g>
</g>
<g>
</g>
<g>
</g>
<g>
</g>
<g>
</g>
<g>
</g>
</svg>
